<?xml version="1.0" encoding="UTF-8" standalone="no"?>
<!-- Created with Inkscape (http://www.inkscape.org/) -->

<svg
   width="529.16663mm"
   height="105.03959mm"
   viewBox="0 0 529.16663 105.03959"
   version="1.1"
   id="svg1"
   xml:space="preserve"
   sodipodi:docname="sthlm.svg"
   inkscape:export-filename="1sthlm.svg"
   inkscape:export-xdpi="96"
   inkscape:export-ydpi="96"
   inkscape:version="1.4.2 (2aeb623e1d, 2025-05-12)"
   xmlns:inkscape="http://www.inkscape.org/namespaces/inkscape"
   xmlns:sodipodi="http://sodipodi.sourceforge.net/DTD/sodipodi-0.dtd"
   xmlns="http://www.w3.org/2000/svg"
   xmlns:svg="http://www.w3.org/2000/svg"><sodipodi:namedview
     id="namedview1"
     pagecolor="#ffffff"
     bordercolor="#000000"
     borderopacity="0.25"
     inkscape:showpageshadow="2"
     inkscape:pageopacity="0.0"
     inkscape:pagecheckerboard="0"
     inkscape:deskcolor="#d1d1d1"
     inkscape:document-units="mm"
     showgrid="false"
     inkscape:zoom="0.32457034"
     inkscape:cx="719.41263"
     inkscape:cy="325.04511"
     inkscape:window-width="1920"
     inkscape:window-height="1011"
     inkscape:window-x="0"
     inkscape:window-y="0"
     inkscape:window-maximized="1"
     inkscape:current-layer="svg1" /><defs
     id="defs1" /><path
     fill="#0c0c0c"
     d="m 83.88823,49.594397 q 0.78401,1.830115 1.09581,2.634462 c 3.82065,9.864545 3.49078,20.793267 -1.05062,30.357312 -1.0574,2.220991 -3.87487,2.433374 -5.06332,0.192048 Q 78.61931,82.306004 78.61027,81.19212 c -0.0226,-2.955297 -0.56711,-5.686912 -1.81204,-8.391416 a 0.07907903,0.07907904 0 0 0 -0.1446,0.0067 C 73.02503,83.008598 65.31821,91.246375 55.32037,95.43078 q -1.30367,0.544519 -2.49212,0.924098 a 0.99187698,1.0167304 35.499944 0 1 -0.2395,0.04295 q -1.9815,0.09715 -2.8107,-1.586095 c -0.60551,-1.233637 -0.15363,-2.408523 0.84502,-3.395881 2.07413,-2.051536 3.65571,-4.48943 4.62952,-7.187155 a 0.06778203,0.06778203 0 0 0 -0.0926,-0.0836 c -10.36614,4.75152 -22.05175,5.081392 -32.48566,0.282425 q -1.34661,-0.619076 -1.7533,-1.211039 c -1.0461,-1.516058 -0.41799,-3.463661 1.28334,-4.173114 0.57389,-0.239496 1.52736,-0.173973 2.39722,-0.203346 q 3.81161,-0.124267 7.4018,-1.800742 a 0.05648502,0.05648503 0 0 0 -0.004,-0.106193 C 20.90066,72.954344 12.39627,64.481591 8.45813,53.261405 a 1.3578999,1.4460166 31.499979 0 1 -0.0768,-0.370542 q -0.15364,-2.284254 1.99053,-3.0163 c 1.11162,-0.379579 2.14417,0.153639 3.01404,1.037065 2.04024,2.069611 4.50073,3.637636 7.22556,4.627253 a 0.05196622,0.05196622 0 0 0 0.0655,-0.0723 C 15.78765,45.215675 15.60238,33.385452 20.31097,22.989948 q 0.64393,-1.425682 1.27656,-1.843671 c 1.4189,-0.942171 3.25805,-0.460918 4.04884,1.120663 q 0.2621,0.519662 0.25984,1.563505 c -0.003,2.964334 0.5897,5.779548 1.83689,8.436604 a 0.05874443,0.05874443 0 0 0 0.10845,-0.0067 C 31.68479,21.336146 40.20951,12.741385 51.17664,8.8213243 c 2.28652,-0.8179031 4.52107,1.2042607 3.606,3.5856687 q -0.19204,0.497068 -0.96928,1.267524 -3.07504,3.047932 -4.59561,7.200711 a 0.05196622,0.05196622 0 0 0 0.0723,0.06326 c 10.42036,-4.997795 22.51267,-5.076874 33.03018,-0.110711 2.90107,1.371456 2.0312,5.359299 -1.18845,5.31863 -3.01404,-0.03615 -5.95125,0.578406 -8.65124,1.85045 a 0.05196622,0.05196622 0 0 0 0.004,0.0949 c 10.88127,3.816127 19.53704,12.361182 23.42095,23.267311 q 0.68911,1.934047 -0.65523,3.165421 c -0.85857,0.786271 -2.08769,0.942169 -3.11571,0.415729 q -0.36828,-0.18979 -1.02802,-0.849534 -3.09765,-3.099899 -7.13972,-4.579807 a 0.06326322,0.06326323 0 0 0 -0.0791,0.0836 z M 39.98356,73.442375 c 1.50702,0.817903 1.92953,2.957556 0.70719,4.243155 q -0.25305,0.268868 -0.80435,0.738824 -2.34299,1.99505 -5.51294,3.578891 a 0.05196622,0.05196622 0 0 0 0.0181,0.09941 c 8.04573,0.935392 16.02819,-0.896982 22.74991,-5.454194 q 0.9851,-0.666522 1.54317,-0.734304 c 1.8753,-0.230459 3.29195,1.08903 3.19253,2.986927 q -0.18979,3.705418 -1.45053,7.139707 a 0.05648503,0.05874443 80.299988 0 0 0.0904,0.06326 q 9.78094,-7.799452 12.27532,-19.995698 0.24401,-1.199743 0.56711,-1.629029 c 0.83598,-1.116144 2.34978,-1.455054 3.55404,-0.788531 q 0.49481,0.273388 1.19974,1.107107 2.23229,2.63898 3.63085,5.632686 a 0.05874443,0.05874443 0 0 0 0.11297,-0.01808 Q 83.23079,57.899944 76.38255,47.588038 C 75.71151,46.575826 75.34096,45.65625 75.81544,44.594332 q 0.82468,-1.845931 2.93722,-1.719404 3.60374,0.216902 7.04481,1.450535 a 0.04744742,0.04744742 0 0 0 0.0542,-0.07456 Q 77.89857,34.259832 65.30694,31.85131 64.86861,31.76772 64.51162,31.573404 C 63.00235,30.75776 62.57983,28.618108 63.80217,27.330249 q 0.25305,-0.266609 0.80435,-0.736565 2.343,-1.995051 5.51294,-3.578891 a 0.05196622,0.05196622 0 0 0 -0.0181,-0.09941 c -8.04573,-0.935392 -16.02819,0.896983 -22.74991,5.454195 q -0.9851,0.666523 -1.54317,0.734305 c -1.8753,0.230459 -3.29195,-1.089032 -3.19253,-2.986928 q 0.18979,-3.705418 1.45053,-7.139707 a 0.05648503,0.05874443 80.299988 0 0 -0.0904,-0.06326 q -9.78094,7.799452 -12.27532,19.995699 -0.24402,1.199742 -0.56711,1.629028 c -0.83598,1.116144 -2.34978,1.455054 -3.55404,0.788531 q -0.49481,-0.273388 -1.19974,-1.107107 -2.23229,-2.63898 -3.63085,-5.632686 a 0.05874443,0.05874443 0 0 0 -0.11297,0.01808 q -1.37372,12.512563 5.47452,22.824469 c 0.67104,1.012212 1.04159,1.931788 0.56712,2.993707 q -0.82469,1.84593 -2.93723,1.719403 -3.60374,-0.216902 -7.04481,-1.450535 a 0.04744742,0.04744742 0 0 0 -0.0542,0.07456 q 7.9531,9.991072 20.54699,12.399593 0.43607,0.0836 0.79532,0.275647 z"
     id="path1"
     style="fill:#ffffff;stroke-width:0.22594" /><g
     id="g6"
     transform="matrix(1.5164986,0,0,1.5164986,-397.21687,-17.796243)"
     style="fill:#ffffff"><g
       id="g3"
       transform="matrix(0.65916528,0,0,0.65916528,107.30298,3.6142041)"
       style="fill:#ffffff"><path
         fill="#0c0c0c"
         d="m 714.32104,62.367585 a 0.079375,0.08202083 23.999967 0 1 0.11377,-0.04498 q 6.46906,3.315229 13.89062,2.545292 c 2.28071,-0.238125 4.40531,-1.225021 4.66725,-3.796771 0.24077,-2.370667 -1.1774,-3.698875 -3.10885,-4.746625 -1.42082,-0.767292 -2.94746,-1.352021 -4.67784,-1.9685 q -4.30741,-1.534584 -6.33677,-2.624667 c -3.02683,-1.627188 -5.49275,-4.299479 -6.21771,-7.670271 q -0.3466,-1.61925 -0.25135,-3.693584 c 0.19844,-4.288896 2.54794,-7.916333 6.33677,-9.945687 4.0349,-2.164292 9.00906,-2.439459 13.58106,-1.860021 q 4.47411,0.566208 8.55134,2.677583 a 0.09525,0.09260417 22.900037 0 1 0.0476,0.113771 l -2.64583,7.453313 a 0.1666875,0.1666875 0 0 1 -0.23548,0.08996 q -5.69383,-3.077104 -12.16554,-2.071688 c -2.38654,0.373063 -3.94229,1.912938 -3.45546,4.460875 0.381,1.994959 2.65906,3.175001 4.30212,3.786188 q 2.3204,0.862542 6.3553,2.436813 2.87072,1.121833 5.1091,2.693458 3.61685,2.54 4.48733,6.670146 c 0.50271,2.391834 0.53182,5.246688 -0.20902,7.733771 -2.159,7.27075 -10.17058,8.683625 -16.63171,8.673042 -4.86039,-0.0079 -9.78429,-0.926042 -14.0917,-3.217333 a 0.16404166,0.1666875 23.699932 0 1 -0.0767,-0.201084 z"
         id="path5"
         style="fill:#ffffff;stroke-width:0.264583" /><rect
         fill="#0c0c0c"
         x="638.83014"
         y="29.302605"
         width="9.7102079"
         height="43.105919"
         rx="0.11377084"
         id="rect5"
         style="fill:#ffffff;stroke-width:0.264583" /><path
         fill="#0c0c0c"
         d="m 668.22533,43.976397 a 0.06085417,0.06085417 0 0 0 -0.11642,0.01852 q -1.03717,13.790084 -1.37848,28.278667 a 0.13758333,0.13758334 0 0 1 -0.13758,0.132292 h -9.23661 a 0.09789583,0.09525 1.5000028 0 1 -0.0979,-0.100542 c 0.72231,-14.197542 1.524,-28.630563 3.38137,-42.891605 a 0.1349375,0.13758334 3.79999 0 1 0.13494,-0.119063 h 9.01965 a 0.25400001,0.2460625 75.600022 0 1 0.2196,0.134938 c 4.25715,8.085667 7.88723,16.581438 11.53583,25.389417 a 0.09789583,0.09789584 0 0 0 0.17992,0 q 3.71475,-9.075208 7.65175,-17.565688 1.99761,-4.310062 3.9079,-7.871354 a 0.16139583,0.16139584 0 0 1 0.14287,-0.08731 h 8.62542 a 0.12964584,0.127 86.700008 0 1 0.127,0.113771 q 1.26206,9.405938 1.96321,19.325168 0.82814,11.681354 1.41552,23.508229 a 0.15610417,0.15875 88.599996 0 1 -0.15875,0.164042 h -9.13077 a 0.17197916,0.17197917 0 0 1 -0.17198,-0.166687 q -0.37042,-14.890751 -1.38377,-28.23898 a 0.05820833,0.05820833 0 0 0 -0.11113,-0.01852 l -9.74725,22.822959 a 0.21695833,0.21695834 0 0 1 -0.20108,0.134937 h -6.51404 a 0.174625,0.17197916 78.400038 0 1 -0.15875,-0.105833 z"
         id="path6"
         style="fill:#ffffff;stroke-width:0.264583" /></g><g
       id="g2"
       transform="matrix(0.65916528,0,0,0.65916528,107.30298,3.6142041)"
       style="fill:#ffffff"><path
         fill="#0c0c0c"
         d="m 469.38831,53.517272 a 0.0396875,0.0396875 0 0 0 0.0688,0.02911 q 6.64898,-6.492876 12.64973,-13.387918 a 0.30427083,0.29104167 19.700021 0 1 0.2249,-0.100541 h 6.49287 a 0.0714375,0.06879167 20.900026 0 1 0.0529,0.116416 q -6.36058,7.072313 -13.50698,14.345709 a 0.10583333,0.10583334 0 0 0 0.0106,0.15875 q 1.89442,1.486959 3.57452,3.204104 6.43467,6.577542 11.18659,14.369522 a 0.10054166,0.10054167 0 0 1 -0.0873,0.153458 h -6.46907 A 0.25135416,0.25135417 0 0 1 483.37419,72.28946 C 479.715,66.442169 475.11125,61.087002 469.54442,56.933043 a 0.09789583,0.09789584 0 0 0 -0.15611,0.07937 v 15.28498 a 0.111125,0.10847917 0 0 1 -0.11112,0.108479 h -5.588 a 0.09789583,0.09525 0 0 1 -0.0979,-0.09525 V 25.249188 a 0.127,0.127 0 0 1 0.10583,-0.124354 l 5.57213,-0.963083 a 0.1031875,0.10054166 85.00001 0 1 0.11906,0.100541 z"
         id="path2"
         style="fill:#ffffff;stroke-width:0.264583" /><path
         fill="#0c0c0c"
         d="m 501.86062,40.579147 a 0.07672916,0.07672917 0 0 0 0.10319,0.07144 q 5.13556,-1.894416 10.55688,-0.97102 c 7.66233,1.304395 9.64406,7.453312 9.66787,14.361583 q 0.0159,5.212292 0.005,18.272126 a 0.09260416,0.09260417 0 0 1 -0.0926,0.0926 l -5.54038,0.0026 a 0.15345833,0.15345834 0 0 1 -0.15346,-0.166688 q 0.0212,-0.206375 0.003,-17.062979 c -0.005,-3.526896 -0.32808,-8.064501 -3.5904,-9.816042 -2.84956,-1.526646 -7.56708,-0.828146 -10.80558,0.116416 a 0.2143125,0.21431251 0 0 0 -0.15346,0.206375 v 26.638251 a 0.08466666,0.08202084 0 0 1 -0.0847,0.08202 h -5.59594 a 0.111125,0.111125 0 0 1 -0.11113,-0.111125 V 25.249188 a 0.127,0.127 0 0 1 0.10584,-0.124354 l 5.56948,-0.963083 a 0.09789583,0.09789584 0 0 1 0.11641,0.09525 z"
         id="path3"
         style="fill:#ffffff;stroke-width:0.264583" /><path
         fill="#0c0c0c"
         d="m 578.70091,68.148731 a 0.10054166,0.10054167 0 0 1 0.0873,0.116417 l -0.75936,4.598458 a 0.1825625,0.18256251 0 0 1 -0.15875,0.153459 q -0.92075,0.105833 -3.61421,-0.423334 c -4.65402,-0.918104 -6.0907,-4.415896 -6.0907,-8.696854 q 0.003,-33.943397 -0.003,-38.68473 a 0.08202084,0.08466666 84.499991 0 1 0.0688,-0.08202 l 5.63298,-0.973667 a 0.079375,0.079375 0 0 1 0.0926,0.07673 q -0.003,28.487688 0,38.737647 c 0,1.891771 0.23019,3.886729 2.15371,4.593167 q 1.19063,0.436562 2.59027,0.584729 z"
         id="path4"
         style="fill:#ffffff;stroke-width:0.264583" /><path
         fill="#0c0c0c"
         d="m 391.6749,66.759669 1.02658,4.410604 a 0.206375,0.21166666 71.099964 0 1 -0.11906,0.238125 q -3.88144,1.725083 -7.95338,1.680104 c -3.70152,-0.03969 -7.33954,-0.79375 -9.38477,-4.225396 -1.51077,-2.537354 -1.78858,-6.011333 -1.78858,-9.001125 q 0.005,-19.991917 0.003,-28.71523 a 0.11377084,0.111125 85.20001 0 1 0.0926,-0.111125 l 5.55096,-0.960438 a 0.1190625,0.1190625 0 0 1 0.14023,0.116417 v 9.712854 a 0.15345833,0.15345834 0 0 0 0.15345,0.153459 h 11.98563 a 0.11377083,0.11377084 0 0 1 0.11377,0.113771 v 4.585229 a 0.14552083,0.14816667 0 0 1 -0.14552,0.148167 h -11.94858 a 0.14816666,0.14816667 0 0 0 -0.14817,0.148166 q -0.0423,9.186334 0.0291,16.189855 c 0.0238,2.177521 0.57415,4.757208 2.49502,5.990167 1.62719,1.045104 4.6699,0.838729 6.5405,0.473604 q 0.78053,-0.153458 3.1168,-1.074208 a 0.17991666,0.17991667 0 0 1 0.24077,0.127 z"
         id="path7"
         style="fill:#ffffff;stroke-width:0.264583" /><path
         fill="#0c0c0c"
         d="m 363.4809,45.569189 q -4.16454,-1.730375 -8.54604,-1.407584 c -2.39184,0.177271 -5.13292,1.201209 -5.04296,4.101042 0.0847,2.788709 2.76225,4.066646 5.00591,4.897438 q 3.37609,1.251479 5.95578,2.439458 c 4.3471,2.00025 6.1886,5.545667 5.41866,10.223501 -1.20914,7.363354 -10.54894,7.672916 -16.19779,7.170208 -2.2516,-0.198437 -4.34446,-0.846667 -6.35529,-1.600729 a 0.1508125,0.1508125 0 0 1 -0.0953,-0.171979 l 1.00806,-4.73075 a 0.1031875,0.10583334 16.799968 0 1 0.14023,-0.07673 c 1.22767,0.45773 3.47133,1.338792 5.21758,1.579563 q 3.20146,0.436562 6.04573,0.0979 2.27013,-0.272521 3.2385,-1.026584 c 1.92617,-1.505479 1.63513,-4.442354 -0.17991,-5.926666 q -1.24619,-1.018646 -3.4925,-2.00025 -3.29142,-1.44198 -3.8444,-1.653646 c -2.7596,-1.04775 -5.3631,-2.397125 -6.77862,-4.992688 -1.16682,-2.135188 -1.13507,-5.381625 -0.1614,-7.569729 3.16971,-7.130521 13.79008,-6.209771 19.71146,-4.280959 a 0.18520833,0.18785417 14.599949 0 1 0.12435,0.216958 l -0.98425,4.611688 a 0.13758333,0.14022917 17.099957 0 1 -0.18785,0.100542 z"
         id="path8"
         style="fill:#ffffff;stroke-width:0.264583" /><path
         fill="#0c0c0c"
         d="m 411.33873,39.261522 c 9.81604,-0.0026 15.1765,7.932209 15.17915,16.973021 0.003,9.038167 -5.35517,16.975667 -15.17121,16.975667 -9.81869,0.0026 -15.17915,-7.932208 -15.18179,-16.970375 0,-9.038167 5.35781,-16.975667 15.17385,-16.978313 z m -9.13606,16.973021 c 0,5.69648 2.39448,11.877146 9.13871,11.877146 6.74422,-0.0026 9.14135,-6.180666 9.14135,-11.877146 0,-5.693833 -2.39713,-11.8745 -9.14135,-11.8745 -6.74423,0 -9.13871,6.180667 -9.13871,11.8745 z"
         id="path9"
         style="fill:#ffffff;stroke-width:0.264583" /><path
         fill="#0c0c0c"
         d="m 456.45548,66.738502 a 0.08202084,0.08466667 74.499976 0 1 0.11377,0.0635 l 0.77787,4.492625 a 0.39952084,0.39422916 75.800052 0 1 -0.26193,0.4445 q -4.27567,1.471083 -8.89265,1.394354 -4.28889,-0.06879 -7.51417,-1.778 c -6.86858,-3.638021 -8.49577,-11.406188 -7.5512,-18.504959 q 0.44185,-3.323166 2.17752,-6.307667 c 4.54025,-7.8105 13.45935,-8.643937 21.41273,-5.823479 a 0.19579166,0.1984375 16.59994 0 1 0.12435,0.235479 l -1.22237,4.593167 a 0.16139583,0.16404167 20.099942 0 1 -0.22755,0.105833 c -3.2967,-1.534583 -8.46402,-1.95527 -11.80306,0.0026 -4.95829,2.905125 -5.30754,10.281709 -4.16454,15.115647 1.18798,5.040312 4.97152,7.225771 9.91923,7.273396 q 3.81264,0.03704 7.112,-1.307042 z"
         id="path10"
         style="fill:#ffffff;stroke-width:0.264583" /><path
         fill="#0c0c0c"
         d="m 529.78739,56.237189 c 0,-9.038167 5.35782,-16.975667 15.17386,-16.975667 9.81868,-0.0026 15.17914,7.932209 15.17914,16.973021 0.003,9.038167 -5.35781,16.975667 -15.17385,16.975667 -9.81604,0.0026 -15.1765,-7.932208 -15.17915,-16.973021 z m 6.0325,-0.0026 c 0.003,5.69648 2.39713,11.879792 9.144,11.879792 6.74688,0 9.14136,-6.183312 9.14136,-11.879792 0,-5.696479 -2.39713,-11.879792 -9.144,-11.879792 -6.74423,0.0026 -9.14136,6.183313 -9.14136,11.879792 z"
         id="path11"
         style="fill:#ffffff;stroke-width:0.264583" /><path
         fill="#0c0c0c"
         d="m 623.53191,72.405877 a 0.06879167,0.06879167 0 0 1 -0.0688,-0.06879 q 0.0106,-2.717271 -0.003,-17.158229 c -0.003,-4.029605 -0.0926,-9.932459 -5.33135,-10.578042 -3.15912,-0.388938 -6.223,0.171979 -8.83444,1.93675 a 0.22754167,0.2301875 65.099903 0 0 -0.0926,0.248708 q 0.95779,3.39725 0.95779,7.717896 0,8.128 0,17.806459 a 0.09525,0.09525 0 0 1 -0.0952,0.09525 h -5.51921 a 0.1666875,0.16404167 0 0 1 -0.16668,-0.164042 q -0.005,-14.411854 0.005,-16.078729 0.0265,-3.661834 -0.48419,-6.410855 c -0.53446,-2.870729 -2.20927,-4.987396 -5.25463,-5.188479 q -3.61156,-0.240771 -7.4295,0.523875 a 0.19050001,0.18785416 84.700019 0 0 -0.15345,0.187854 v 26.979564 a 0.1508125,0.1508125 0 0 1 -0.15082,0.150812 h -5.5536 a 0.07672916,0.07672917 0 0 1 -0.0767,-0.07673 V 41.09773 a 0.09525,0.09525 0 0 1 0.0714,-0.0926 q 5.39221,-1.370542 10.68123,-1.598083 c 4.09839,-0.174625 7.83166,0.124354 10.76325,3.182937 a 0.13229167,0.1349375 51.399928 0 0 0.16933,0.01852 q 6.32619,-4.172479 13.66044,-2.936875 c 7.51681,1.267354 8.59631,8.072438 8.62806,14.369521 q 0.0132,2.338917 0.005,18.280063 a 0.0873125,0.08466667 0 0 1 -0.0873,0.08467 z"
         id="path12"
         style="fill:#ffffff;stroke-width:0.264583" /></g><text
       xml:space="preserve"
       style="font-size:16.0827px;text-align:start;writing-mode:lr-tb;direction:ltr;text-anchor:start;fill:#ffffff;stroke-width:0.335056"
       x="333.4631"
       y="70.174606"
       id="text3"><tspan
         id="tspan3"
         style="font-style:normal;font-variant:normal;font-weight:normal;font-stretch:normal;font-size:16.0827px;font-family:Ubuntu;-inkscape-font-specification:Ubuntu;fill:#ffffff;stroke-width:0.335056"
         x="333.4631"
         y="70.174606">Modern Inventory Platform</tspan></text></g></svg>
