<svg xmlns="http://www.w3.org/2000/svg" width="1280" height="800" viewBox="0 0 1280 800" fill="none">
  <defs>
    <linearGradient id="g" x1="0" y1="0" x2="1" y2="1">
      <stop offset="0" stop-color="#eff6ff"/>
      <stop offset="1" stop-color="#f5faff"/>
    </linearGradient>
  </defs>
  <rect width="1280" height="800" rx="20" fill="url(#g)"/>
  <rect x="40" y="40" width="1200" height="60" rx="12" fill="#ffffff" stroke="#e5e7eb"/>
  <circle cx="78" cy="70" r="10" fill="#4f46e5"/>
  <rect x="110" y="56" width="160" height="28" rx="6" fill="#f1f5f9"/>
  <rect x="290" y="56" width="120" height="28" rx="6" fill="#f1f5f9"/>
  <rect x="420" y="56" width="120" height="28" rx="6" fill="#f1f5f9"/>

  <rect x="40" y="120" width="280" height="640" rx="14" fill="#ffffff" stroke="#e5e7eb"/>
  <rect x="60" y="140" width="240" height="36" rx="8" fill="#f1f5f9"/>
  <rect x="60" y="190" width="200" height="14" rx="7" fill="#e2e8f0"/>
  <rect x="60" y="214" width="170" height="14" rx="7" fill="#e2e8f0"/>
  <rect x="60" y="250" width="240" height="36" rx="8" fill="#f1f5f9"/>
  <rect x="60" y="302" width="180" height="12" rx="6" fill="#e2e8f0"/>
  <rect x="60" y="326" width="160" height="12" rx="6" fill="#e2e8f0"/>

  <rect x="340" y="120" width="900" height="640" rx="14" fill="#ffffff" stroke="#e5e7eb"/>
  <rect x="360" y="140" width="240" height="36" rx="8" fill="#eef2ff"/>
  <rect x="620" y="140" width="180" height="36" rx="8" fill="#ecfeff"/>
  <rect x="820" y="140" width="180" height="36" rx="8" fill="#f1f5f9"/>
  <rect x="1020" y="140" width="200" height="36" rx="8" fill="#f1f5f9"/>

  <rect x="360" y="200" width="860" height="80" rx="10" fill="#f8fafc"/>
  <rect x="380" y="220" width="160" height="16" rx="8" fill="#e2e8f0"/>
  <rect x="560" y="220" width="120" height="16" rx="8" fill="#e2e8f0"/>
  <rect x="700" y="220" width="220" height="16" rx="8" fill="#e2e8f0"/>

  <rect x="360" y="300" width="860" height="420" rx="10" fill="#ffffff" stroke="#e5e7eb"/>
  <rect x="380" y="320" width="820" height="48" rx="8" fill="#f8fafc"/>
  <rect x="380" y="380" width="820" height="50" rx="8" fill="#fafafa"/>
  <rect x="380" y="440" width="820" height="50" rx="8" fill="#fafafa"/>
  <rect x="380" y="500" width="820" height="50" rx="8" fill="#fafafa"/>
  <rect x="380" y="560" width="820" height="50" rx="8" fill="#fafafa"/>

  <rect x="1130" y="650" width="90" height="28" rx="6" fill="#4f46e5"/>
  <rect x="1020" y="650" width="100" height="28" rx="6" fill="#06b6d4"/>
</svg>
