<svg xmlns="http://www.w3.org/2000/svg" width="1200" height="900" viewBox="0 0 1200 900" fill="none">
  <rect width="1200" height="900" rx="24" fill="#f8fafc"/>
  <rect x="80" y="80" width="1040" height="120" rx="16" fill="#ffffff" stroke="#e5e7eb"/>
  <rect x="100" y="100" width="280" height="80" rx="10" fill="#eef2ff"/>
  <rect x="400" y="100" width="200" height="80" rx="10" fill="#ecfeff"/>
  <rect x="80" y="240" width="1040" height="580" rx="16" fill="#ffffff" stroke="#e5e7eb"/>
  <rect x="110" y="270" width="400" height="300" rx="12" fill="#0ea5e9" opacity=".08"/>
  <rect x="120" y="280" width="380" height="60" rx="8" fill="#111827" opacity=".06"/>
  <rect x="120" y="350" width="360" height="200" rx="8" fill="#111827" opacity=".04"/>
  <rect x="540" y="270" width="520" height="60" rx="8" fill="#111827" opacity=".06"/>
  <rect x="540" y="340" width="520" height="40" rx="8" fill="#111827" opacity=".04"/>
  <rect x="540" y="390" width="520" height="40" rx="8" fill="#111827" opacity=".04"/>
  <rect x="540" y="440" width="520" height="40" rx="8" fill="#111827" opacity=".04"/>
  <rect x="540" y="490" width="520" height="40" rx="8" fill="#111827" opacity=".04"/>
  <rect x="540" y="540" width="520" height="40" rx="8" fill="#111827" opacity=".04"/>
  <rect x="540" y="590" width="520" height="40" rx="8" fill="#111827" opacity=".04"/>
</svg>
